<svg xmlns="http://www.w3.org/2000/svg" version="1.1" xmlns:xlink="http://www.w3.org/1999/xlink" xmlns:svgjs="http://svgjs.dev/svgjs" width="1000" height="1000" viewBox="0 0 1000 1000"><rect width="1000" height="1000" fill="#000000"></rect><g transform="matrix(0.7,0,0,0.7,149.57575757575756,282.1265587044535)"><svg viewBox="0 0 396 247" data-background-color="#ffffff" preserveAspectRatio="xMidYMid meet" height="623" width="1000" xmlns="http://www.w3.org/2000/svg" xmlns:xlink="http://www.w3.org/1999/xlink"><g id="tight-bounds" transform="matrix(1,0,0,1,0.2400000000000091,-0.09999999999999432)"><svg viewBox="0 0 395.52 247.2" height="247.2" width="395.52"><g><svg viewBox="0 0 395.52 247.2" height="247.2" width="395.52"><g transform="matrix(1,0,0,1,0,95.26881675120352)"><svg viewBox="0 0 395.52 56.662366497592956" height="56.662366497592956" width="395.52"><g><svg viewBox="0 0 395.52 56.662366497592956" height="56.662366497592956" width="395.52"><g><svg viewBox="0 0 395.52 56.662366497592956" height="56.662366497592956" width="395.52"><g><svg viewBox="0 0 395.52 56.662366497592956" height="56.662366497592956" width="395.52"><g id="textblocktransform"><svg viewBox="0 0 395.52 56.662366497592956" height="56.662366497592956" width="395.52" id="textblock"><g><svg viewBox="0 0 395.52 27.980881718574754" height="27.980881718574754" width="395.52"><g transform="matrix(1,0,0,1,0,0)"><svg width="395.52" viewBox="-1.5499999523162842 -37.5 580.510009765625 42" height="27.980881718574754" data-palette-color="#ceb700"><path d="M19.95 0.5L19.95 0.5Q14.7 0.5 10.75-1.65 6.8-3.8 4.63-7.48 2.45-11.15 2.45-15.8L2.45-15.8Q2.45-19.55 3.95-22.75 5.45-25.95 8.03-28.38 10.6-30.8 13.88-32.15 17.15-33.5 20.75-33.5L20.75-33.5Q23.4-33.5 25.15-33.2 26.9-32.9 28.3-32.35 29.7-31.8 31.1-31.1L31.1-31.1 31.65-21.75 30.75-21.75 26-29.5Q24.75-30.3 23.65-30.65 22.55-31 21-31L21-31Q17.95-31 15.53-29.18 13.1-27.35 11.7-24.03 10.3-20.7 10.3-16.3L10.3-16.3Q10.3-11.95 11.65-8.78 13-5.6 15.33-3.88 17.65-2.15 20.55-2.15L20.55-2.15Q22.4-2.15 23.88-2.63 25.35-3.1 26.7-3.85L26.7-3.85 31.2-10.55 32.05-10.55 31.35-2.1Q29.3-0.9 26.43-0.2 23.55 0.5 19.95 0.5ZM66.4 0L37.75 0 37.75-0.8 42-2.85 42-30.15 37.75-32.2 37.75-33 65-33 65-24.35 64.2-24.35 60.5-30.25 49.55-30.25 49.55-18.4 57.25-18.4 60.05-22.7 60.85-22.7 60.85-11.45 60.05-11.45 57.25-15.65 49.55-15.65 49.55-2.75 61.7-2.75 65.6-10.2 66.4-10.2 66.4 0ZM85.15 0L71.7 0 71.7-0.8 75.95-2.85 75.95-30.1 71.7-32.2 71.7-33 81.2-33 100.6-11.1 100.6-30.2 94.9-32.2 94.9-33 108.3-33 108.3-32.2 104.1-30.15 104.1 0.25 101 0.25 79.45-23.85 79.45-2.85 85.15-0.8 85.15 0ZM136.99 0L118.84 0 118.84-0.8 124.14-2.85 124.14-30.25 116.99-30.25 112.99-22 112.19-22 112.19-33 143.64-33 143.64-22 142.84-22 138.84-30.25 131.69-30.25 131.69-2.85 136.99-0.8 136.99 0ZM163.19 0L147.64 0 147.64-0.8 151.89-2.85 151.89-30.15 147.64-32.2 147.64-33 164.74-33Q169.99-33 173.02-30.83 176.04-28.65 176.04-24.85L176.04-24.85Q176.04-22.1 174.19-20.13 172.34-18.15 169.34-17L169.34-17 178.59-2.8 182.19-0.8 182.19 0 171.34 0 162.09-15.3 159.44-15.3 159.44-2.9 163.19-0.8 163.19 0ZM161.44-30.25L161.44-30.25 159.44-30.25 159.44-17.75 161.74-17.75Q164.84-17.75 166.64-19.5 168.44-21.25 168.44-24.05L168.44-24.05Q168.44-27 166.67-28.63 164.89-30.25 161.44-30.25ZM201.49 0.5L201.49 0.5Q197.79 0.5 194.64-0.78 191.49-2.05 189.16-4.33 186.84-6.6 185.54-9.7 184.24-12.8 184.24-16.5L184.24-16.5Q184.24-20.2 185.54-23.3 186.84-26.4 189.16-28.68 191.49-30.95 194.64-32.23 197.79-33.5 201.49-33.5L201.49-33.5Q205.24-33.5 208.39-32.23 211.54-30.95 213.86-28.68 216.19-26.4 217.49-23.3 218.79-20.2 218.79-16.5L218.79-16.5Q218.79-12.8 217.49-9.7 216.19-6.6 213.86-4.33 211.54-2.05 208.39-0.78 205.24 0.5 201.49 0.5ZM202.29-2.1L202.29-2.1Q204.79-2.1 206.71-3.7 208.64-5.3 209.71-8.2 210.79-11.1 210.79-15L210.79-15Q210.79-19.8 209.46-23.4 208.14-27 205.89-28.98 203.64-30.95 200.84-30.95L200.84-30.95Q198.34-30.95 196.39-29.38 194.44-27.8 193.31-24.9 192.19-22 192.19-18.1L192.19-18.1Q192.19-13.3 193.54-9.7 194.89-6.1 197.19-4.1 199.49-2.1 202.29-2.1ZM245.53 0L234.68 0 234.68-0.8 237.73-2.5 250.78-33.25 255.18-33.25 268.08-2.6 271.48-0.8 271.48 0 255.68 0 255.68-0.8 260.03-2.6 256.63-10.9 244.78-10.9 241.38-2.6 245.53-0.8 245.53 0ZM250.73-25.3L245.93-13.65 255.48-13.65 250.73-25.3ZM303.28 0L274.63 0 274.63-0.8 278.88-2.85 278.88-30.15 274.63-32.2 274.63-33 301.88-33 301.88-24.35 301.08-24.35 297.38-30.25 286.43-30.25 286.43-18.4 294.13-18.4 296.93-22.7 297.73-22.7 297.73-11.45 296.93-11.45 294.13-15.65 286.43-15.65 286.43-2.75 298.58-2.75 302.48-10.2 303.28-10.2 303.28 0ZM320.03 0.5L320.03 0.5Q316.73 0.5 314.2-0.18 311.68-0.85 309.33-2.05L309.33-2.05 308.83-10.5 309.73-10.5 313.28-4.35Q314.63-3.25 316.2-2.65 317.78-2.05 319.43-2.05L319.43-2.05Q322.13-2.05 323.83-3.33 325.53-4.6 325.53-7.1L325.53-7.1Q325.53-8.8 324.75-9.9 323.98-11 322.18-11.98 320.38-12.95 317.23-14.35L317.23-14.35Q313.68-15.9 311.78-18.05 309.88-20.2 309.88-23.4L309.88-23.4Q309.88-25.4 310.9-27.23 311.93-29.05 313.65-30.48 315.38-31.9 317.5-32.7 319.63-33.5 321.88-33.5L321.88-33.5Q324.43-33.5 326.78-32.9 329.13-32.3 331.13-31.2L331.13-31.2 331.63-23.2 330.78-23.2 327.28-28.85Q325.98-29.85 324.75-30.38 323.53-30.9 321.98-30.9L321.98-30.9Q319.93-30.9 318.58-29.6 317.23-28.3 317.23-26.15L317.23-26.15Q317.23-24.1 318.7-22.78 320.18-21.45 323.83-19.8L323.83-19.8Q328.38-17.7 330.53-15.5 332.68-13.3 332.68-9.7L332.68-9.7Q332.68-6.5 330.83-4.2 328.98-1.9 326.08-0.7 323.18 0.5 320.03 0.5ZM361.68 0L343.53 0 343.53-0.8 348.83-2.85 348.83-30.25 341.68-30.25 337.68-22 336.88-22 336.88-33 368.33-33 368.33-22 367.53-22 363.53-30.25 356.38-30.25 356.38-2.85 361.68-0.8 361.68 0ZM388.02 0L372.32 0 372.32-0.8 376.57-2.85 376.57-30.15 372.32-32.2 372.32-33 388.02-33 388.02-32.2 384.12-30.15 384.12-18.35 397.97-18.35 397.97-30.15 393.97-32.2 393.97-33 409.72-33 409.72-32.2 405.52-30.15 405.52-2.85 409.72-0.8 409.72 0 393.97 0 393.97-0.8 397.97-2.85 397.97-15.6 384.12-15.6 384.12-2.85 388.02-0.8 388.02 0ZM442.77 0L414.12 0 414.12-0.8 418.37-2.85 418.37-30.15 414.12-32.2 414.12-33 441.37-33 441.37-24.35 440.57-24.35 436.87-30.25 425.92-30.25 425.92-18.4 433.62-18.4 436.42-22.7 437.22-22.7 437.22-11.45 436.42-11.45 433.62-15.65 425.92-15.65 425.92-2.75 438.07-2.75 441.97-10.2 442.77-10.2 442.77 0ZM472.57 0L454.42 0 454.42-0.8 459.72-2.85 459.72-30.25 452.57-30.25 448.57-22 447.77-22 447.77-33 479.22-33 479.22-22 478.42-22 474.42-30.25 467.27-30.25 467.27-2.85 472.57-0.8 472.57 0ZM499.37 0L483.32 0 483.32-0.8 487.57-2.85 487.57-30.15 483.32-32.2 483.32-33 499.37-33 499.37-32.2 495.12-30.15 495.12-2.85 499.37-0.8 499.37 0ZM521.61 0.5L521.61 0.5Q516.36 0.5 512.41-1.65 508.46-3.8 506.29-7.48 504.11-11.15 504.11-15.8L504.11-15.8Q504.11-19.55 505.61-22.75 507.11-25.95 509.69-28.38 512.26-30.8 515.54-32.15 518.81-33.5 522.41-33.5L522.41-33.5Q525.06-33.5 526.81-33.2 528.56-32.9 529.96-32.35 531.36-31.8 532.76-31.1L532.76-31.1 533.31-21.75 532.41-21.75 527.66-29.5Q526.41-30.3 525.31-30.65 524.21-31 522.66-31L522.66-31Q519.61-31 517.19-29.18 514.76-27.35 513.36-24.03 511.96-20.7 511.96-16.3L511.96-16.3Q511.96-11.95 513.31-8.78 514.66-5.6 516.99-3.88 519.31-2.15 522.21-2.15L522.21-2.15Q524.06-2.15 525.54-2.63 527.01-3.1 528.36-3.85L528.36-3.85 532.86-10.55 533.71-10.55 533.01-2.1Q530.96-0.9 528.09-0.2 525.21 0.5 521.61 0.5ZM549.01 0L538.16 0 538.16-0.8 541.21-2.5 554.26-33.25 558.66-33.25 571.56-2.6 574.96-0.8 574.96 0 559.16 0 559.16-0.8 563.51-2.6 560.11-10.9 548.26-10.9 544.86-2.6 549.01-0.8 549.01 0ZM554.21-25.3L549.41-13.65 558.96-13.65 554.21-25.3Z" opacity="1" transform="matrix(1,0,0,1,0,0)" fill="#ffffff" class="wordmark-text-0" data-fill-palette-color="primary" id="text-0"></path></svg></g></svg></g><g transform="matrix(1,0,0,1,3.5,33.45870848706755)"><svg viewBox="0 0 388.52 23.203658010525405" height="23.203658010525405" width="388.52"><g transform="matrix(1,0,0,1,0,0)"><svg width="388.52" viewBox="-2.75 -42.9900016784668 973.3400268554688 58.787681579589844" height="23.203658010525405" data-palette-color="#ceb700"><path d="M9.16-36.21L9.16-21.19Q11.3-23.39 13.48-24.39 15.65-25.39 18.26-25.39L18.26-25.39Q20.46-25.39 22.3-24.38 24.15-23.36 25.34-21.7 26.54-20.04 27.2-17.96 27.86-15.87 27.86-13.65L27.86-13.65Q27.86-7.1 24.4-3.31 20.95 0.49 14.4 0.49L14.4 0.49Q11.79 0.49 9.3 0.05L9.3 0.05 9.25 0.05Q6.84 0.05 5.35 0.56L5.35 0.56 5.15 0.15Q5.47-0.32 5.55-0.89 5.64-1.46 5.64-2.95L5.64-2.95 5.64-31.69Q5.64-34.91 4.94-36.13 4.25-37.35 2.05-37.35L2.05-37.35 1.34-37.35 1.25-37.79Q5.27-38.99 8.64-38.99L8.64-38.99Q9.16-37.72 9.16-36.21L9.16-36.21ZM9.16-19.24L9.16-19.24 9.16-2.81Q10.33-2.17 12.27-1.76 14.21-1.34 16.16-1.34L16.16-1.34Q18.07-1.34 19.47-1.87 20.87-2.39 21.73-3.28 22.58-4.17 23.11-5.62 23.63-7.06 23.82-8.64 24-10.23 24-12.35L24-12.35Q24-17.92 22.12-20.79 20.24-23.66 17.14-23.66L17.14-23.66Q15.21-23.66 13.12-22.52 11.04-21.39 9.16-19.24ZM89.23-25.15L89.52-24.66 79.12 2.29Q78.46 4.03 77.98 5.15 77.51 6.27 76.87 7.48 76.24 8.69 75.64 9.45 75.04 10.21 74.25 10.83 73.45 11.45 72.53 11.79L72.53 11.79Q68.64 11.94 65.71 9.16L65.71 9.16Q67.03 7.54 69.38 6.4L69.38 6.4 69.67 6.69Q70.65 8.96 72.82 9.96L72.82 9.96Q73.87 9.11 74.98 7.14 76.09 5.18 77.73 0.76L77.73 0.76 69.03-19.8Q68.35-21.53 67.51-22.29 66.67-23.05 65.78-23.02 64.88-23 63.74-22.85L63.74-22.85 63.47-23.34Q67.57-25.39 70.67-25.39L70.67-25.39 78.02-7.5Q78.51-6.32 79.17-3L79.17-3 79.58-3Q80.75-6.88 80.78-6.96L80.78-6.96 86.22-22.56Q86.54-23.44 85.49-23.82 84.44-24.19 82.32-24L82.32-24 82.17-24.61Q84.24-25.02 89.23-25.15L89.23-25.15ZM181.71-32.54L181.71-32.54 181.71-2.15Q183.03-1.98 184.25-1.89 185.47-1.81 186.65-1.81L186.65-1.81Q190.77-1.81 194.04-2.87 197.31-3.93 199.59-6.09 201.86-8.25 203.06-11.49 204.27-14.72 204.27-19.09L204.27-19.09Q204.25-21.97 203.54-24.19 202.83-26.42 201.56-28.06 200.29-29.71 198.57-30.82 196.85-31.93 194.84-32.63 192.82-33.33 190.59-33.62 188.35-33.91 186.06-33.91L186.06-33.91Q184.96-33.91 183.86-33.84 182.76-33.76 181.62-33.64L181.62-33.64Q181.67-33.3 181.69-33.02 181.71-32.74 181.71-32.54ZM173.66-33.74L173.56-34.45Q175.68-34.72 177.37-34.92 179.05-35.13 180.64-35.28 182.23-35.42 183.91-35.5 185.6-35.57 187.72-35.57L187.72-35.57Q189.55-35.57 191.06-35.47 192.58-35.38 193.93-35.14 195.29-34.91 196.59-34.53 197.9-34.16 199.34-33.62L199.34-33.62Q201.27-32.89 202.89-31.65 204.52-30.42 205.69-28.64 206.86-26.86 207.51-24.49 208.15-22.12 208.15-19.09L208.15-19.09Q208.13-15.5 207.23-12.7 206.32-9.89 204.71-7.76 203.1-5.64 200.89-4.15 198.68-2.66 196.09-1.73 193.51-0.81 190.63-0.39 187.74 0.02 184.79 0.02L184.79 0.02Q184.55 0.02 183.19 0.04 181.84 0.05 180.3 0.17 178.76 0.29 177.61 0.44L177.61 0.44 177.47 0.2Q177.95-0.51 177.95-2.39L177.95-2.39 177.95-28.1Q177.95-29.71 177.81-30.8 177.66-31.88 177.27-32.54 176.88-33.2 176.17-33.48 175.46-33.76 174.83-33.76 174.19-33.76 174.02-33.76 173.85-33.76 173.66-33.74L173.66-33.74ZM251.19-2.44L251.19-18.09Q251.19-19.73 251.03-20.83 250.87-21.92 250.47-22.58 250.07-23.24 249.36-23.51 248.65-23.78 246.89-23.75L246.89-23.75 246.79-24.19Q250.77-25.39 254.19-25.39L254.19-25.39Q254.7-24.1 254.7-22.61L254.7-22.61 254.7-19.6 254.8-19.51Q255.83-20.92 256.77-22.02 257.71-23.12 258.68-23.85 259.66-24.58 260.73-24.96 261.81-25.34 263.13-25.34L263.13-25.34Q263.96-25.34 264.96-25.2L264.96-25.2 263.54-19.24 262.64-19.51Q262.64-19.87 262.59-20.51 262.54-21.14 262.46-21.77 262.37-22.39 262.24-22.84 262.1-23.29 261.93-23.29L261.93-23.29Q261.22-23.29 260.5-22.99 259.78-22.68 258.93-22 258.07-21.31 257.05-20.21 256.02-19.12 254.7-17.55L254.7-17.55 254.7-3.34Q254.7-2.56 254.83-2.09 254.95-1.61 255.34-1.29 255.73-0.98 256.44-0.73 257.15-0.49 258.29-0.2L258.29-0.2 258.1 0.39Q256.68 0.2 255.69 0.1 254.7 0 254.09 0L254.09 0Q252.7 0 250.85 0.39L250.85 0.39 250.7 0.15Q251.19-0.56 251.19-2.44L251.19-2.44ZM308.97-1.2L308.97-1.2 308.48-0.71Q306.28-0.46 304.53 0.61L304.53 0.61Q303.48-1.98 303.08-3.71L303.08-3.71Q305.58-4.98 308.02-5.25L308.02-5.25Q308.02-3.44 308.97-1.2ZM405.85-18.99L405.85-18.99 405.85-19.8Q408.29-20.07 410.03-20.78 411.76-21.48 412.88-22.58 414.01-23.68 414.53-25.17 415.06-26.66 415.06-28.49L415.06-28.49Q414.98-29.96 414.63-30.96 414.27-31.96 413.44-32.58 412.61-33.2 411.24-33.48 409.86-33.76 407.73-33.76L407.73-33.76Q406.95-33.76 406.08-33.73 405.22-33.69 404.22-33.64L404.22-33.64Q404.36-33.06 404.36-32.4L404.36-32.4 404.36-4.39Q404.36-3.39 404.55-2.69 404.73-1.98 405.17-1.49 405.61-1 406.35-0.7 407.1-0.39 408.22-0.2L408.22-0.2 408 0.39Q406.51 0.2 405.44 0.1 404.36 0 403.65 0L403.65 0Q403 0 402.14 0.1 401.29 0.2 400.26 0.39L400.26 0.39 400.11 0.15Q400.6-0.56 400.6-2.44L400.6-2.44 400.6-28.1Q400.6-29.71 400.46-30.8 400.31-31.88 399.92-32.54 399.53-33.2 398.82-33.48 398.11-33.76 396.31-33.74L396.31-33.74 396.21-34.45Q397.84-34.67 399.1-34.84 400.36-35.01 401.49-35.14 402.63-35.28 403.74-35.38 404.85-35.47 405.88-35.53 406.9-35.6 407.52-35.62 408.15-35.64 408.71-35.64L408.71-35.64Q410.93-35.64 412.82-35.31 414.71-34.99 416.09-34.17 417.47-33.35 418.24-31.96 419.01-30.57 419.01-28.44L419.01-28.44Q419.01-26.86 418.32-25.44 417.62-24.02 416.44-22.85 415.25-21.68 413.68-20.79 412.1-19.9 410.32-19.36L410.32-19.36 410.32-19.09 420.26-4.91Q421.55-3.03 423.6-2L423.6-2Q425.6-1.15 426.03-1 426.46-0.85 427.02-0.66L427.02-0.66 427.02-0.2Q422.7-0.2 419.77 0.71L419.77 0.71 419.4 0.49Q419.4 0.15 418.99-0.52 418.57-1.2 417.97-2.04 417.38-2.88 415.84-5.09 414.3-7.3 405.85-18.99ZM487.02-22.19L487.02-6.81Q487.02-5.18 487.18-4.09 487.34-3 487.74-2.34 488.14-1.68 488.85-1.4 489.56-1.12 490.34-1.12 491.12-1.12 491.32-1.15L491.32-1.15 491.44-0.71Q487.41 0.49 484.02 0.49L484.02 0.49Q483.53-0.83 483.53-2.29L483.53-2.29 483.53-3.44Q482.24-2.29 481.12-1.46 480.01-0.63 478.94-0.09 477.87 0.46 476.74 0.73 475.62 1 474.33 1L474.33 1Q472.86 1 471.41 0.66 469.96 0.32 468.78-0.56 467.61-1.44 466.89-2.95 466.17-4.47 466.17-6.81L466.17-6.81 466.17-21.9Q466.17-22.88 465.35-23.39 464.54-23.9 462.92-24.34L462.92-24.34 463.12-24.95Q464.54-24.66 466.78-24.66L466.78-24.66Q468.17-24.66 470.03-25.05L470.03-25.05 470.17-24.8Q469.69-24.05 469.69-22.19L469.69-22.19 469.69-7.69Q469.69-5.66 470.15-4.36 470.61-3.05 471.4-2.29 472.18-1.54 473.23-1.26 474.28-0.98 475.45-0.98L475.45-0.98Q476.55-0.98 477.49-1.21 478.43-1.44 479.38-1.94 480.33-2.44 481.33-3.23 482.33-4.03 483.53-5.15L483.53-5.15 483.53-21.29Q483.53-22.05 483.4-22.52 483.26-23 482.88-23.33 482.5-23.66 481.8-23.9 481.09-24.15 479.94-24.44L479.94-24.44 480.14-25.05Q481.53-24.85 482.53-24.76 483.53-24.66 484.14-24.66L484.14-24.66Q485.53-24.66 487.39-25.05L487.39-25.05 487.53-24.8Q487.02-24.07 487.02-22.19L487.02-22.19ZM536.72-36.21L536.72-21.19Q538.87-23.39 541.04-24.39 543.21-25.39 545.83-25.39L545.83-25.39Q548.02-25.39 549.87-24.38 551.71-23.36 552.91-21.7 554.1-20.04 554.76-17.96 555.42-15.87 555.42-13.65L555.42-13.65Q555.42-7.1 551.97-3.31 548.51 0.49 541.97 0.49L541.97 0.49Q539.36 0.49 536.87 0.05L536.87 0.05 536.82 0.05Q534.4 0.05 532.91 0.56L532.91 0.56 532.72 0.15Q533.03-0.32 533.12-0.89 533.2-1.46 533.2-2.95L533.2-2.95 533.2-31.69Q533.2-34.91 532.51-36.13 531.81-37.35 529.62-37.35L529.62-37.35 528.91-37.35 528.81-37.79Q532.84-38.99 536.21-38.99L536.21-38.99Q536.72-37.72 536.72-36.21L536.72-36.21ZM536.72-19.24L536.72-19.24 536.72-2.81Q537.89-2.17 539.83-1.76 541.77-1.34 543.73-1.34L543.73-1.34Q545.63-1.34 547.03-1.87 548.44-2.39 549.29-3.28 550.15-4.17 550.67-5.62 551.2-7.06 551.38-8.64 551.56-10.23 551.56-12.35L551.56-12.35Q551.56-17.92 549.68-20.79 547.8-23.66 544.7-23.66L544.7-23.66Q542.77-23.66 540.69-22.52 538.6-21.39 536.72-19.24ZM616.79-25.15L617.08-24.66 606.68 2.29Q606.02 4.03 605.55 5.15 605.07 6.27 604.44 7.48 603.8 8.69 603.2 9.45 602.61 10.21 601.81 10.83 601.02 11.45 600.09 11.79L600.09 11.79Q596.21 11.94 593.28 9.16L593.28 9.16Q594.6 7.54 596.94 6.4L596.94 6.4 597.23 6.69Q598.21 8.96 600.38 9.96L600.38 9.96Q601.43 9.11 602.54 7.14 603.65 5.18 605.29 0.76L605.29 0.76 596.6-19.8Q595.92-21.53 595.07-22.29 594.23-23.05 593.34-23.02 592.45-23 591.3-22.85L591.3-22.85 591.03-23.34Q595.13-25.39 598.23-25.39L598.23-25.39 605.58-7.5Q606.07-6.32 606.73-3L606.73-3 607.15-3Q608.32-6.88 608.34-6.96L608.34-6.96 613.79-22.56Q614.1-23.44 613.05-23.82 612-24.19 609.88-24L609.88-24 609.73-24.61Q611.81-25.02 616.79-25.15L616.79-25.15ZM710.77-18.99L710.77-18.99 710.77-19.8Q713.21-20.07 714.94-20.78 716.68-21.48 717.8-22.58 718.92-23.68 719.45-25.17 719.97-26.66 719.97-28.49L719.97-28.49Q719.9-29.96 719.54-30.96 719.19-31.96 718.36-32.58 717.53-33.2 716.15-33.48 714.77-33.76 712.65-33.76L712.65-33.76Q711.87-33.76 711-33.73 710.13-33.69 709.13-33.64L709.13-33.64Q709.28-33.06 709.28-32.4L709.28-32.4 709.28-4.39Q709.28-3.39 709.46-2.69 709.64-1.98 710.08-1.49 710.52-1 711.27-0.7 712.01-0.39 713.14-0.2L713.14-0.2 712.92 0.39Q711.43 0.2 710.35 0.1 709.28 0 708.57 0L708.57 0Q707.91 0 707.06 0.1 706.2 0.2 705.18 0.39L705.18 0.39 705.03 0.15Q705.52-0.56 705.52-2.44L705.52-2.44 705.52-28.1Q705.52-29.71 705.37-30.8 705.23-31.88 704.84-32.54 704.44-33.2 703.74-33.48 703.03-33.76 701.22-33.74L701.22-33.74 701.12-34.45Q702.76-34.67 704.02-34.84 705.27-35.01 706.41-35.14 707.55-35.28 708.66-35.38 709.77-35.47 710.79-35.53 711.82-35.6 712.44-35.62 713.06-35.64 713.62-35.64L713.62-35.64Q715.85-35.64 717.74-35.31 719.63-34.99 721.01-34.17 722.39-33.35 723.16-31.96 723.93-30.57 723.93-28.44L723.93-28.44Q723.93-26.86 723.23-25.44 722.54-24.02 721.35-22.85 720.17-21.68 718.59-20.79 717.02-19.9 715.24-19.36L715.24-19.36 715.24-19.09 725.17-4.91Q726.47-3.03 728.52-2L728.52-2Q730.52-1.15 730.95-1 731.37-0.85 731.93-0.66L731.93-0.66 731.93-0.2Q727.61-0.2 724.68 0.71L724.68 0.71 724.32 0.49Q724.32 0.15 723.9-0.52 723.49-1.2 722.89-2.04 722.29-2.88 720.75-5.09 719.21-7.3 710.77-18.99ZM781.24-25.39L781.24-25.39Q786.86-25.39 790.06-21.95 793.25-18.51 793.25-12.35L793.25-12.35Q793.25-8.79 791.62-5.71 789.98-2.64 787.18-0.82 784.37 1 781.1 1L781.1 1Q775.46 1 772.27-2.4 769.08-5.81 769.08-12.06L769.08-12.06Q769.08-15.77 770.72-18.84 772.36-21.9 775.15-23.65 777.95-25.39 781.24-25.39ZM780.75-23.71L780.75-23.71Q778.83-23.71 777.41-23.14 775.99-22.58 775.14-21.63 774.29-20.68 773.77-19.21 773.26-17.75 773.08-16.21 772.89-14.67 772.89-12.65L772.89-12.65Q772.89-9.42 773.66-7.02 774.43-4.61 775.73-3.28 777.02-1.95 778.48-1.33 779.95-0.71 781.58-0.71L781.58-0.71Q783.49-0.71 784.92-1.31 786.35-1.9 787.2-2.87 788.05-3.83 788.57-5.31 789.08-6.79 789.26-8.3 789.45-9.81 789.45-11.74L789.45-11.74Q789.45-14.45 788.93-16.58 788.42-18.7 787.58-20.02 786.74-21.34 785.58-22.19 784.42-23.05 783.25-23.38 782.07-23.71 780.75-23.71ZM843.66 1L843.66 1Q841.1 1 838.9-0.02 836.7-1.05 835.24-2.77 833.77-4.49 832.94-6.7 832.11-8.91 832.11-11.3L832.11-11.3Q832.11-14.72 833.11-17.43 834.12-20.14 835.9-21.86 837.68-23.58 840.06-24.49 842.44-25.39 845.27-25.39L845.27-25.39Q848.4-25.39 851.72-24.24L851.72-24.24 850.13-18.26 849.23-18.51Q849.5-21.07 849.08-22.9L849.08-22.9Q846.35-23.71 844.13-23.71L844.13-23.71Q839.83-23.71 837.88-20.91 835.92-18.12 835.92-12.65L835.92-12.65Q835.92-7.54 838.3-4.15 840.68-0.76 844.32-0.76L844.32-0.76Q848.84-0.76 851.67-3.59L851.67-3.59 852.67-2.54Q850.84-0.63 848.68 0.18 846.52 1 843.66 1ZM890.14-11.89L890.14-11.89Q890.14-14.48 890.99-16.91 891.85-19.34 893.43-21.23 895.02-23.12 897.28-24.26 899.54-25.39 902.35-25.39L902.35-25.39Q904.1-25.39 905.67-24.79 907.23-24.19 908.39-22.94 909.55-21.68 910.22-19.71 910.89-17.75 910.89-15.04L910.89-15.04 909.94-14.16 894-14.16Q893.95-13.75 893.95-13.35 893.95-12.96 893.95-12.57L893.95-12.57Q893.95-9.91 894.57-7.74 895.19-5.57 896.25-4.02 897.32-2.47 898.76-1.61 900.2-0.76 901.81-0.76L901.81-0.76Q902.83-0.76 903.9-0.92 904.96-1.07 905.97-1.42 906.98-1.76 907.94-2.29 908.89-2.83 909.69-3.59L909.69-3.59 910.69-2.54Q908.77-0.63 906.5 0.18 904.23 1 901.25 1L901.25 1Q898.9 1 896.86 0.1 894.83-0.81 893.34-2.49 891.85-4.17 890.99-6.56 890.14-8.94 890.14-11.89ZM901.81-23.71L901.81-23.71Q898.02-23.71 896.27-21.74 894.51-19.78 894.14-16.09L894.14-16.09 907.74-16.09Q907.55-20.09 905.95-21.9 904.35-23.71 901.81-23.71ZM966.59-5.69L966.59-5.69Q966.59-3.93 965.89-2.66 965.18-1.39 963.99-0.57 962.81 0.24 961.24 0.62 959.66 1 957.93 1L957.93 1Q953.73 1 950.04-0.76L950.04-0.76Q950.51-2.37 950.97-3.75 951.43-5.13 951.92-6.3L951.92-6.3 952.63-6.05Q952.41-4.98 952.41-3.99 952.41-3 952.48-2.2L952.48-2.2Q953.24-1.81 953.9-1.53 954.56-1.25 955.22-1.06 955.88-0.88 956.63-0.79 957.39-0.71 958.39-0.71L958.39-0.71Q959.88-0.71 960.86-0.9 961.83-1.1 962.38-1.57 962.93-2.05 963.15-2.84 963.37-3.64 963.37-4.81L963.37-4.81Q963.37-5.71 963.07-6.51 962.76-7.3 962.02-8.08 961.27-8.86 960.04-9.7 958.81-10.55 956.98-11.55L956.98-11.55Q954.02-13.31 952.51-15.05 950.99-16.8 950.99-18.8L950.99-18.8Q950.99-20.39 951.65-21.62 952.31-22.85 953.45-23.69 954.58-24.54 956.1-24.96 957.61-25.39 959.3-25.39L959.3-25.39Q960.15-25.39 961.09-25.27 962.03-25.15 962.91-24.91 963.79-24.68 964.56-24.35 965.33-24.02 965.89-23.61L965.89-23.61Q965.11-20.41 963.98-17.99L963.98-17.99 963.27-18.26Q963.32-18.97 963.35-20.01 963.37-21.04 963.37-22.46L963.37-22.46Q961.79-23.71 958.98-23.71L958.98-23.71Q957.59-23.71 956.62-23.54 955.66-23.36 955.07-22.95 954.49-22.53 954.23-21.81 953.97-21.09 953.97-20L953.97-20Q953.97-19.19 954.19-18.49 954.41-17.8 954.97-17.13 955.54-16.46 956.5-15.76 957.46-15.06 958.98-14.26L958.98-14.26Q961.35-12.96 962.82-11.99 964.3-11.01 965.14-10.07 965.98-9.13 966.29-8.11 966.59-7.08 966.59-5.69Z" opacity="1" transform="matrix(1,0,0,1,0,0)" fill="#ffffff" class="slogan-text-1" data-fill-palette-color="secondary" id="text-1"></path></svg></g></svg></g></svg></g></svg></g></svg></g></svg></g></svg></g></svg></g><defs></defs></svg><rect width="395.52" height="247.2" fill="none" stroke="none" visibility="hidden"></rect></g></svg></g></svg>