<svg xmlns="http://www.w3.org/2000/svg" width="395.52" viewBox="-1.5499999523162842 -37.5 580.510009765625 42" height="27.980881718574754" data-palette-color="#ceb700"><path d="M19.95 0.5L19.95 0.5Q14.7 0.5 10.75-1.65 6.8-3.8 4.63-7.48 2.45-11.15 2.45-15.8L2.45-15.8Q2.45-19.55 3.95-22.75 5.45-25.95 8.03-28.38 10.6-30.8 13.88-32.15 17.15-33.5 20.75-33.5L20.75-33.5Q23.4-33.5 25.15-33.2 26.9-32.9 28.3-32.35 29.7-31.8 31.1-31.1L31.1-31.1 31.65-21.75 30.75-21.75 26-29.5Q24.75-30.3 23.65-30.65 22.55-31 21-31L21-31Q17.95-31 15.53-29.18 13.1-27.35 11.7-24.03 10.3-20.7 10.3-16.3L10.3-16.3Q10.3-11.95 11.65-8.78 13-5.6 15.33-3.88 17.65-2.15 20.55-2.15L20.55-2.15Q22.4-2.15 23.88-2.63 25.35-3.1 26.7-3.85L26.7-3.85 31.2-10.55 32.05-10.55 31.35-2.1Q29.3-0.9 26.43-0.2 23.55 0.5 19.95 0.5ZM66.4 0L37.75 0 37.75-0.8 42-2.85 42-30.15 37.75-32.2 37.75-33 65-33 65-24.35 64.2-24.35 60.5-30.25 49.55-30.25 49.55-18.4 57.25-18.4 60.05-22.7 60.85-22.7 60.85-11.45 60.05-11.45 57.25-15.65 49.55-15.65 49.55-2.75 61.7-2.75 65.6-10.2 66.4-10.2 66.4 0ZM85.15 0L71.7 0 71.7-0.8 75.95-2.85 75.95-30.1 71.7-32.2 71.7-33 81.2-33 100.6-11.1 100.6-30.2 94.9-32.2 94.9-33 108.3-33 108.3-32.2 104.1-30.15 104.1 0.25 101 0.25 79.45-23.85 79.45-2.85 85.15-0.8 85.15 0ZM136.99 0L118.84 0 118.84-0.8 124.14-2.85 124.14-30.25 116.99-30.25 112.99-22 112.19-22 112.19-33 143.64-33 143.64-22 142.84-22 138.84-30.25 131.69-30.25 131.69-2.85 136.99-0.8 136.99 0ZM163.19 0L147.64 0 147.64-0.8 151.89-2.85 151.89-30.15 147.64-32.2 147.64-33 164.74-33Q169.99-33 173.02-30.83 176.04-28.65 176.04-24.85L176.04-24.85Q176.04-22.1 174.19-20.13 172.34-18.15 169.34-17L169.34-17 178.59-2.8 182.19-0.8 182.19 0 171.34 0 162.09-15.3 159.44-15.3 159.44-2.9 163.19-0.8 163.19 0ZM161.44-30.25L161.44-30.25 159.44-30.25 159.44-17.75 161.74-17.75Q164.84-17.75 166.64-19.5 168.44-21.25 168.44-24.05L168.44-24.05Q168.44-27 166.67-28.63 164.89-30.25 161.44-30.25ZM201.49 0.5L201.49 0.5Q197.79 0.5 194.64-0.78 191.49-2.05 189.16-4.33 186.84-6.6 185.54-9.7 184.24-12.8 184.24-16.5L184.24-16.5Q184.24-20.2 185.54-23.3 186.84-26.4 189.16-28.68 191.49-30.95 194.64-32.23 197.79-33.5 201.49-33.5L201.49-33.5Q205.24-33.5 208.39-32.23 211.54-30.95 213.86-28.68 216.19-26.4 217.49-23.3 218.79-20.2 218.79-16.5L218.79-16.5Q218.79-12.8 217.49-9.7 216.19-6.6 213.86-4.33 211.54-2.05 208.39-0.78 205.24 0.5 201.49 0.5ZM202.29-2.1L202.29-2.1Q204.79-2.1 206.71-3.7 208.64-5.3 209.71-8.2 210.79-11.1 210.79-15L210.79-15Q210.79-19.8 209.46-23.4 208.14-27 205.89-28.98 203.64-30.95 200.84-30.95L200.84-30.95Q198.34-30.95 196.39-29.38 194.44-27.8 193.31-24.9 192.19-22 192.19-18.1L192.19-18.1Q192.19-13.3 193.54-9.7 194.89-6.1 197.19-4.1 199.49-2.1 202.29-2.1ZM245.53 0L234.68 0 234.68-0.8 237.73-2.5 250.78-33.25 255.18-33.25 268.08-2.6 271.48-0.8 271.48 0 255.68 0 255.68-0.8 260.03-2.6 256.63-10.9 244.78-10.9 241.38-2.6 245.53-0.8 245.53 0ZM250.73-25.3L245.93-13.65 255.48-13.65 250.73-25.3ZM303.28 0L274.63 0 274.63-0.8 278.88-2.85 278.88-30.15 274.63-32.2 274.63-33 301.88-33 301.88-24.35 301.08-24.35 297.38-30.25 286.43-30.25 286.43-18.4 294.13-18.4 296.93-22.7 297.73-22.7 297.73-11.45 296.93-11.45 294.13-15.65 286.43-15.65 286.43-2.75 298.58-2.75 302.48-10.2 303.28-10.2 303.28 0ZM320.03 0.5L320.03 0.5Q316.73 0.5 314.2-0.18 311.68-0.85 309.33-2.05L309.33-2.05 308.83-10.5 309.73-10.5 313.28-4.35Q314.63-3.25 316.2-2.65 317.78-2.05 319.43-2.05L319.43-2.05Q322.13-2.05 323.83-3.33 325.53-4.6 325.53-7.1L325.53-7.1Q325.53-8.8 324.75-9.9 323.98-11 322.18-11.98 320.38-12.95 317.23-14.35L317.23-14.35Q313.68-15.9 311.78-18.05 309.88-20.2 309.88-23.4L309.88-23.4Q309.88-25.4 310.9-27.23 311.93-29.05 313.65-30.48 315.38-31.9 317.5-32.7 319.63-33.5 321.88-33.5L321.88-33.5Q324.43-33.5 326.78-32.9 329.13-32.3 331.13-31.2L331.13-31.2 331.63-23.2 330.78-23.2 327.28-28.85Q325.98-29.85 324.75-30.38 323.53-30.9 321.98-30.9L321.98-30.9Q319.93-30.9 318.58-29.6 317.23-28.3 317.23-26.15L317.23-26.15Q317.23-24.1 318.7-22.78 320.18-21.45 323.83-19.8L323.83-19.8Q328.38-17.7 330.53-15.5 332.68-13.3 332.68-9.7L332.68-9.7Q332.68-6.5 330.83-4.2 328.98-1.9 326.08-0.7 323.18 0.5 320.03 0.5ZM361.68 0L343.53 0 343.53-0.8 348.83-2.85 348.83-30.25 341.68-30.25 337.68-22 336.88-22 336.88-33 368.33-33 368.33-22 367.53-22 363.53-30.25 356.38-30.25 356.38-2.85 361.68-0.8 361.68 0ZM388.02 0L372.32 0 372.32-0.8 376.57-2.85 376.57-30.15 372.32-32.2 372.32-33 388.02-33 388.02-32.2 384.12-30.15 384.12-18.35 397.97-18.35 397.97-30.15 393.97-32.2 393.97-33 409.72-33 409.72-32.2 405.52-30.15 405.52-2.85 409.72-0.8 409.72 0 393.97 0 393.97-0.8 397.97-2.85 397.97-15.6 384.12-15.6 384.12-2.85 388.02-0.8 388.02 0ZM442.77 0L414.12 0 414.12-0.8 418.37-2.85 418.37-30.15 414.12-32.2 414.12-33 441.37-33 441.37-24.35 440.57-24.35 436.87-30.25 425.92-30.25 425.92-18.4 433.62-18.4 436.42-22.7 437.22-22.7 437.22-11.45 436.42-11.45 433.62-15.65 425.92-15.65 425.92-2.75 438.07-2.75 441.97-10.2 442.77-10.2 442.77 0ZM472.57 0L454.42 0 454.42-0.8 459.72-2.85 459.72-30.25 452.57-30.25 448.57-22 447.77-22 447.77-33 479.22-33 479.22-22 478.42-22 474.42-30.25 467.27-30.25 467.27-2.85 472.57-0.8 472.57 0ZM499.37 0L483.32 0 483.32-0.8 487.57-2.85 487.57-30.15 483.32-32.2 483.32-33 499.37-33 499.37-32.2 495.12-30.15 495.12-2.85 499.37-0.8 499.37 0ZM521.61 0.5L521.61 0.5Q516.36 0.5 512.41-1.65 508.46-3.8 506.29-7.48 504.11-11.15 504.11-15.8L504.11-15.8Q504.11-19.55 505.61-22.75 507.11-25.95 509.69-28.38 512.26-30.8 515.54-32.15 518.81-33.5 522.41-33.5L522.41-33.5Q525.06-33.5 526.81-33.2 528.56-32.9 529.96-32.35 531.36-31.8 532.76-31.1L532.76-31.1 533.31-21.75 532.41-21.75 527.66-29.5Q526.41-30.3 525.31-30.65 524.21-31 522.66-31L522.66-31Q519.61-31 517.19-29.18 514.76-27.35 513.36-24.03 511.96-20.7 511.96-16.3L511.96-16.3Q511.96-11.95 513.31-8.78 514.66-5.6 516.99-3.88 519.31-2.15 522.21-2.15L522.21-2.15Q524.06-2.15 525.54-2.63 527.01-3.1 528.36-3.85L528.36-3.85 532.86-10.55 533.71-10.55 533.01-2.1Q530.96-0.9 528.09-0.2 525.21 0.5 521.61 0.5ZM549.01 0L538.16 0 538.16-0.8 541.21-2.5 554.26-33.25 558.66-33.25 571.56-2.6 574.96-0.8 574.96 0 559.16 0 559.16-0.8 563.51-2.6 560.11-10.9 548.26-10.9 544.86-2.6 549.01-0.8 549.01 0ZM554.21-25.3L549.41-13.65 558.96-13.65 554.21-25.3Z" opacity="1" transform="matrix(1,0,0,1,0,0)" fill="#ceb700" class="wordmark-text-0" data-fill-palette-color="primary" id="text-0"/></svg>