<svg xmlns="http://www.w3.org/2000/svg" version="1.1" xmlns:xlink="http://www.w3.org/1999/xlink" xmlns:svgjs="http://svgjs.dev/svgjs" width="1000" height="1000" viewBox="0 0 1000 1000"><rect width="1000" height="1000" fill="#ffffff"></rect><g transform="matrix(0.7,0,0,0.7,149.5757575757575,317.6074346666667)"><svg viewBox="0 0 396 206" data-background-color="#ffffff" preserveAspectRatio="xMidYMid meet" height="520" width="1000" xmlns="http://www.w3.org/2000/svg" xmlns:xlink="http://www.w3.org/1999/xlink"><g id="tight-bounds" transform="matrix(1,0,0,1,0.24000000000003752,0.22216609523809439)"><svg viewBox="0 0 395.5199999999999 205.5556678095238" height="205.5556678095238" width="395.5199999999999"><g><svg viewBox="0 0 395.5199999999999 205.5556678095238" height="205.5556678095238" width="395.5199999999999"><g><svg viewBox="0 0 395.5199999999999 205.5556678095238" height="205.5556678095238" width="395.5199999999999"><g id="textblocktransform"><svg viewBox="0 0 395.5199999999999 205.5556678095238" height="205.5556678095238" width="395.5199999999999" id="textblock"><g><svg viewBox="0 0 395.5199999999999 205.5556678095238" height="205.5556678095238" width="395.5199999999999"><rect width="395.5199999999999" height="205.5556678095238" x="0" y="0" opacity="1" fill="#ecab55" data-fill-palette-color="tertiary"></rect><g transform="matrix(1,0,0,1,23.607599999999998,23.607600000000012)"><svg width="348.30479999999994" viewBox="0 -35.79999923706055 78.75 35.79999923706055" height="158.3404678095238" data-palette-color="#ffffff"><path d="M30.25-2.15L36.8-2.15 36.8 0 0 0 0-2.15 11.1-2.15Q7.15-4.5 4.88-8.55 2.6-12.6 2.6-17.7L2.6-17.7Q2.6-25.4 7.93-30.6 13.25-35.8 21.38-35.8 29.5-35.8 34.95-29.8L34.95-29.8 31.2-25.7Q28.7-28.1 26.48-29.05 24.25-30 21.25-30L21.25-30Q15.95-30 12.35-26.58 8.75-23.15 8.75-17.82 8.75-12.5 12.33-8.93 15.9-5.35 20.8-5.35L20.8-5.35Q23.85-5.35 26.05-6.38 28.25-7.4 30.65-9.65L30.65-9.65 34.45-5.75Q32.25-3.35 30.25-2.15L30.25-2.15ZM72.95-2.15L78.75-2.15 78.75 0 67.6 0 64.1-7.95 46.6-7.95 43.1 0 31.95 0 31.95-2.15 37.75-2.15 52.2-34.95 58.5-34.95 72.95-2.15ZM49-13.4L61.7-13.4 55.35-27.8 49-13.4Z" opacity="1" transform="matrix(1,0,0,1,0,0)" fill="#ffffff" class="wordmark-text-0" data-fill-palette-color="quaternary" id="text-0"></path></svg></g></svg></g></svg></g></svg></g></svg></g><defs></defs></svg><rect width="395.5199999999999" height="205.5556678095238" fill="none" stroke="none" visibility="hidden"></rect></g></svg></g></svg>